<svg width="640" height="480" xmlns="http://www.w3.org/2000/svg" xmlns:svg="http://www.w3.org/2000/svg">
 <!-- Created with SVG-edit - http://svg-edit.googlecode.com/ -->
 <g>
  <title>Layer 1</title>
  <text fill="#000000" stroke-width="0" stroke-dasharray="null" stroke-linejoin="null" stroke-linecap="null" stroke-opacity="0.6" x="231" y="151" id="svg_3" font-size="14" font-family="Monospace" text-anchor="middle" xml:space="preserve" stroke="#000000" font-weight="bold">pull</text>
  <line stroke="#000000" stroke-opacity="0.6" id="svg_15" y2="134" x2="600.99998" y1="134" x1="83.99999" stroke-linecap="null" stroke-linejoin="null" stroke-dasharray="null" stroke-width="2" fill="none"/>
  <text xml:space="preserve" text-anchor="middle" font-family="Monospace" font-size="14" id="svg_16" y="89" x="70" stroke-opacity="0.6" stroke-linecap="null" stroke-linejoin="null" stroke-dasharray="null" stroke-width="0" stroke="#000000" fill="#000000">internet</text>
  <text id="svg_17" xml:space="preserve" text-anchor="middle" font-family="Monospace" font-size="14" y="176.25" x="67.01563" stroke-opacity="0.6" stroke-linecap="null" stroke-linejoin="null" stroke-dasharray="null" stroke-width="0" stroke="#000000" fill="#000000">your</text>
  <text id="svg_18" xml:space="preserve" text-anchor="middle" font-family="Monospace" font-size="14" y="202.25" x="66.01563" stroke-opacity="0.6" stroke-linecap="null" stroke-linejoin="null" stroke-dasharray="null" stroke-width="0" stroke="#000000" fill="#000000">computer</text>
  <path transform="rotate(-47.24089050292969 162.4399871826172,131.29803466796875) " id="svg_19" d="m172.40282,138.40506c-1.6523,-2.89569 -7.99785,-4.33368 -20.50539,-4.64679l-8.45744,-0.21106l0,-2.53387l0,-2.53386l6.38368,0c7.52567,0 12.90674,-0.5207 17.29764,-1.67341c2.59105,-0.68073 3.45213,-1.11328 4.6234,-2.32861l1.43916,-1.4925l4.12796,4.14233l4.12816,4.14233l-4.1743,4.17134l-4.17401,4.17017l-0.68886,-1.20605l0,-0.00002z" stroke-linecap="null" stroke-linejoin="null" stroke-dasharray="null" stroke-width="2" stroke="#5b4545" fill="#ffffff"/>
  <text font-weight="bold" id="svg_21" xml:space="preserve" text-anchor="middle" font-family="Monospace" font-size="14" y="126" x="132.00781" stroke-opacity="0.6" stroke-linecap="null" stroke-linejoin="null" stroke-dasharray="null" stroke-width="0" stroke="#000000" fill="#000000">push</text>
  <g id="svg_4">
   <rect stroke="#000000" id="svg_1" height="57" width="124" y="160" x="106" stroke-width="2" fill="#77e5b7"/>
   <text xml:space="preserve" text-anchor="middle" font-family="Monospace" font-size="18" id="svg_2" y="194" x="167" stroke-width="0" stroke="#000000" fill="#000000">your local</text>
  </g>
  <g id="svg_5">
   <ellipse ry="24" rx="82" id="svg_11" cy="81" cx="247" stroke-linecap="null" stroke-linejoin="null" stroke-dasharray="null" stroke-width="2" stroke="#000000" fill="#9999c4"/>
   <text id="svg_6" xml:space="preserve" text-anchor="middle" font-family="Monospace" font-size="18" y="86" x="247" stroke-width="0" stroke="#000000" fill="#000000">your remote</text>
  </g>
  <ellipse ry="24" rx="82" cy="80.5" cx="484" stroke-linecap="null" stroke-linejoin="null" stroke-dasharray="null" stroke-width="2" stroke="#000000" fill="#9999c4" id="svg_8"/>
  <text xml:space="preserve" text-anchor="middle" font-family="Monospace" font-size="18" y="85.5" x="484" stroke-width="0" stroke="#000000" fill="#000000" id="svg_9">copy remote</text>
  <path fill="#ffffff" stroke-width="2" stroke-dasharray="null" stroke-linejoin="null" stroke-linecap="null" d="m348.37134,85.40202c0.03262,-2.45665 -0.02048,-4.91638 0.26709,-7.36868c7.06897,0.80669 14.05444,2.12666 21.00504,3.31364c0.3718,-1.20461 0.19727,-2.20379 0.52127,-3.31747c4.46478,2.34352 8.88931,4.72046 13.13251,7.21052c-4.07172,2.82452 -8.74057,5.27762 -13.32523,7.78947c-0.14722,-1.16975 -0.29669,-2.33952 -0.44467,-3.50922c-6.75632,1.13165 -13.90192,2.30164 -20.70224,3.33624c-0.46286,-2.38723 -0.44846,-4.98687 -0.45377,-7.45451l0,0z" id="svg_10" stroke="#665555"/>
  <text fill="#000000" stroke="#000000" stroke-width="0" stroke-dasharray="null" stroke-linejoin="null" stroke-linecap="null" stroke-opacity="0.6" x="364" y="115" id="svg_13" font-size="14" font-family="Monospace" text-anchor="middle" xml:space="preserve" font-weight="bold">fork</text>
  <path fill="#ffffff" stroke-width="2" stroke-dasharray="null" stroke-linejoin="null" stroke-linecap="null" d="m545.53705,139.37251c0.03265,-2.45665 -0.02045,-4.91638 0.26709,-7.36868c7.06897,0.80669 14.05444,2.12666 21.005,3.31364c0.37183,-1.20462 0.19733,-2.20381 0.5213,-3.31747c4.46478,2.34352 8.88928,4.72046 13.13251,7.21051c-4.07172,2.82452 -8.7406,5.27763 -13.32526,7.78947c-0.14716,-1.16975 -0.29663,-2.33951 -0.44464,-3.5092c-6.75629,1.13165 -13.90192,2.30164 -20.70221,3.33624c-0.46289,-2.38725 -0.44849,-4.98689 -0.4538,-7.45451l0,0z" stroke="#665555" id="svg_14" transform="rotate(90.66619873046875 563,139.50000000000006) "/>
  <text fill="#000000" stroke="#665555" stroke-width="0" stroke-dasharray="null" stroke-linejoin="null" stroke-linecap="null" x="565" y="116" id="svg_22" font-size="14" font-family="Monospace" text-anchor="middle" xml:space="preserve" font-weight="bold">clone</text>
  <g id="svg_26">
   <rect stroke="#000000" height="57" width="124" y="162" x="424" stroke-width="2" fill="#77e5b7" id="svg_24"/>
   <text xml:space="preserve" text-anchor="middle" font-family="Monospace" font-size="18" y="196" x="485" stroke-width="0" stroke="#000000" fill="#000000" id="svg_25">copy local</text>
  </g>
  <text font-weight="bold" xml:space="preserve" text-anchor="middle" font-family="Monospace" font-size="14" y="128" x="446.00781" stroke-opacity="0.6" stroke-linecap="null" stroke-linejoin="null" stroke-dasharray="null" stroke-width="0" stroke="#000000" fill="#000000" id="svg_27">push</text>
  <path transform="rotate(-47.24089050292969 471.8168334960938,131.7461242675781) " d="m481.77963,138.85316c-1.65228,-2.89569 -7.99783,-4.33368 -20.50537,-4.64679l-8.45743,-0.21106l0,-2.53389l0,-2.53386l6.38367,0c7.52567,0 12.90674,-0.52069 17.29764,-1.67341c2.59106,-0.68074 3.45212,-1.11328 4.62341,-2.32861l1.43915,-1.49252l4.12796,4.14236l4.12817,4.14232l-4.17432,4.17134l-4.17401,4.17015l-0.68887,-1.20604z" stroke-linecap="null" stroke-linejoin="null" stroke-dasharray="null" stroke-width="2" stroke="#5b4545" fill="#ffffff" id="svg_28"/>
  <path transform="rotate(132.93994140625 494.16760253906256,138.25642395019534) " d="m504.13043,145.36346c-1.65228,-2.89569 -7.99786,-4.33371 -20.50537,-4.64679l-8.45746,-0.21109l0,-2.53387l0,-2.53384l6.38367,0c7.5257,0 12.9068,-0.52069 17.29767,-1.67343c2.59106,-0.68073 3.45215,-1.11328 4.62341,-2.32857l1.43915,-1.49252l4.12793,4.14232l4.12817,4.14233l-4.17426,4.17133l-4.17407,4.17021l-0.68884,-1.20607z" stroke-linecap="null" stroke-linejoin="null" stroke-dasharray="null" stroke-width="2" stroke="#5b4545" fill="#ffffff" id="svg_29"/>
  <text fill="#000000" stroke-width="0" stroke-dasharray="null" stroke-linejoin="null" stroke-linecap="null" stroke-opacity="0.6" x="520.01563" y="152" font-size="14" font-family="Monospace" text-anchor="middle" xml:space="preserve" stroke="#000000" font-weight="bold" id="svg_30">pull</text>
  <path id="svg_20" transform="rotate(132.93994140625 200.81683349609378,137.7461395263672) " d="m210.77966,144.85318c-1.65228,-2.89569 -7.99786,-4.33371 -20.50537,-4.64679l-8.45746,-0.21109l0,-2.53387l0,-2.53383l6.38367,0c7.5257,0 12.90677,-0.52069 17.29767,-1.67343c2.59103,-0.68074 3.45212,-1.11328 4.62338,-2.32858l1.43918,-1.49252l4.12793,4.14233l4.12817,4.14232l-4.17429,4.17134l-4.17404,4.17021l-0.68884,-1.20607l0,-0.00002z" stroke-linecap="null" stroke-linejoin="null" stroke-dasharray="null" stroke-width="2" stroke="#5b4545" fill="#ffffff"/>
  <path stroke="#5e4949" transform="rotate(175.1364288330078 362.6472778320313,45.47406005859376) " id="svg_7" d="m378.39746,52.62449l0.86325,-1.88378l-10.20676,-0.32783c-25.84009,-0.8299 -51.17374,-4.3493 -65.27481,-9.06905c-2.53436,-0.8468 -4.22571,-1.66264 -3.76434,-1.81297c1.05133,-0.34496 26.78775,-3.091 28.96902,-3.091c0.88501,0 3.01682,0.50495 4.73679,1.12223c7.32376,2.63253 26.29749,5.37818 39.65552,5.74003l5.41327,0.14641l-0.93396,-1.6279c-0.96219,-1.69031 -0.69327,-2.04514 1.56775,-2.04514c1.4454,0 44.59958,6.4903 45.84015,6.89324c0.93146,0.30577 -5.00482,1.43985 -26.25885,5.01553c-9.22769,1.55317 -17.83832,2.82401 -19.133,2.82401c-2.06149,0 -2.23926,-0.22546 -1.47403,-1.88378l0,0z" stroke-width="2" fill="#ffffff"/>
  <text font-weight="bold" xml:space="preserve" text-anchor="middle" font-family="Monospace" font-size="14" id="svg_12" y="28" x="368" stroke-linecap="null" stroke-linejoin="null" stroke-dasharray="null" stroke-width="0" stroke="#5e4949" fill="#000000">pull request</text>
 </g>
</svg>